<?xml version="1.0" encoding="utf-8"?>
<!-- Generator: Adobe Illustrator 26.0.3, SVG Export Plug-In . SVG Version: 6.00 Build 0)  -->
<svg version="1.1" id="Layer_1" xmlns="http://www.w3.org/2000/svg" xmlns:xlink="http://www.w3.org/1999/xlink" x="0px" y="0px"
	 viewBox="0 0 2545.08 398.94" style="enable-background:new 0 0 2545.08 398.94;" xml:space="preserve">
<style type="text/css">
	.st0{opacity:0.2;fill:#1C75BC;}
</style>
<g>
	<path d="M529.82,261.22h-60.96v-123.5h58.67c12.74,0,23.22,2.29,31.45,6.87c9.57,5.34,14.36,13.45,14.36,24.31
		c0,7.52-2,13.45-5.99,17.79c-3.99,4.35-9.1,7.34-15.33,8.98c8.69,2.23,15.09,6.17,19.2,11.8c4.11,5.64,6.17,12.1,6.17,19.38
		c0,7.81-2.11,14.24-6.34,19.29c-4.58,5.29-10.5,9.12-17.75,11.5C546.04,260.03,538.21,261.22,529.82,261.22z M525.76,186.87
		c4.05,0,7.47-1,10.26-3c2.79-2,4.18-5.11,4.18-9.34c0-7.4-4.82-11.28-14.45-11.63H501.1v23.96H525.76z M525.76,236.2
		c5.05,0,9.37-1.03,12.95-3.08c3.58-2.05,5.37-5.49,5.37-10.31c0-3.64-1.44-6.64-4.32-8.99c-2.88-2.35-7.55-3.52-14.01-3.52H501.1
		v25.9H525.76z"/>
	<path d="M679.56,261.22H595v-123.5h32.24v96.02h52.32V261.22z"/>
	<path d="M748.45,263.33c-16.56,0-30.1-4.66-40.61-13.99c-10.51-9.32-15.77-22.37-15.77-39.15v-72.48h32.24v72.45
		c0,6.16,1.13,11.11,3.39,14.86c2.26,3.75,5.25,6.49,8.98,8.22c3.73,1.73,7.71,2.59,11.94,2.59c3.64,0,7.24-0.79,10.79-2.38
		c3.55-1.58,6.52-4.26,8.9-8.04c2.38-3.78,3.57-8.87,3.57-15.26v-72.45h32.24v72.48c0,9.62-1.94,18.47-5.81,26.57
		c-3.88,8.09-9.9,14.54-18.06,19.35C772.08,260.93,761.48,263.33,748.45,263.33z"/>
	<path d="M925.33,261.22h-99.19v-123.5h97.43v25.72h-65.19v23.08h58.84v25.55l-58.84,0.18v23.25h66.95V261.22z"/>
	<path d="M1003.19,263.33c-9.16,0-17.43-1.32-24.8-3.96c-7.37-2.64-13.82-6.26-19.34-10.86c-5.52-4.6-10.04-9.95-13.57-16.05
		c-5.58-9.5-8.37-20.2-8.37-32.11c0-17.94,6.49-32.87,19.47-44.77c12.98-11.9,29.21-17.86,48.71-17.86
		c19.38,0,36.29,6.11,50.74,18.32l-18.32,22.55c-10.45-9.04-21.32-13.57-32.59-13.57c-9.98,0-18.29,3.31-24.93,9.93
		c-6.64,6.62-9.95,15.08-9.95,25.39c0,10.31,3.38,18.8,10.13,25.48c6.75,6.68,15.12,10.02,25.11,10.02c6.22,0,13.39-1.93,21.49-5.79
		v-15.61h-23.43v-23.08h50.92l0.18,56.13c-6.46,4.46-14.12,8.21-22.99,11.26C1022.78,261.81,1013.29,263.33,1003.19,263.33z"/>
	<path d="M1186.59,261.22h-36.47l-17.97-34.18h-23.96v34.18h-32.24v-123.5h55.5c11.98,0,21.76,1.84,29.33,5.51
		c7.58,3.67,13.15,8.78,16.74,15.33c3.58,6.55,5.37,14.05,5.37,22.51c0,18.56-7.34,31.83-22.02,39.82L1186.59,261.22z
		 M1131.63,201.32c13.74,0,20.61-6.4,20.61-19.2c0-12.33-6.87-18.56-20.61-18.67h-23.43v37.88H1131.63z"/>
	<path d="M1328.59,261.22h-34.35l-8.46-21.85h-53.38l-8.63,21.85h-33.12l53.03-123.5h33.12L1328.59,261.22z M1276.27,214.71
		l-16.91-44.04l-17.27,44.04H1276.27z"/>
	<path d="M1386.91,263.33c-20.55,0-39.52-6.7-56.9-20.08l12.51-25.19c8.1,6.46,16.12,11.22,24.05,14.27
		c7.93,3.05,14.83,4.58,20.7,4.58c10.33,0,15.5-3.4,15.5-10.2c0-4.57-2.41-7.97-7.22-10.2c-2.7-1.17-5.11-2.11-7.22-2.81
		c-17.85-4.92-29.54-9.03-35.06-12.31c-10.34-6.1-15.5-15.18-15.5-27.26c0-12.54,4.61-22.1,13.83-28.67
		c9.22-6.56,21.05-9.85,35.5-9.85c18.32,0,34.76,4.64,49.33,13.92l-12.16,25.72c-15.39-8.81-28.66-13.21-39.81-13.21
		c-8.58,0-12.86,2.87-12.86,8.62c0,3.34,1.88,6.21,5.64,8.62s9.57,4.57,17.44,6.51c9.63,2.46,19.03,6.33,28.19,11.61
		c9.16,5.98,13.74,15.13,13.74,27.44c0,8.68-2.26,15.86-6.78,21.54c-4.88,5.92-11.12,10.23-18.72,12.93
		C1403.48,261.99,1395.42,263.33,1386.91,263.33z"/>
	<path d="M1500.72,263.33c-20.55,0-39.52-6.7-56.91-20.08l12.51-25.19c8.1,6.46,16.12,11.22,24.05,14.27
		c7.93,3.05,14.83,4.58,20.7,4.58c10.33,0,15.5-3.4,15.5-10.2c0-4.57-2.41-7.97-7.22-10.2c-2.7-1.17-5.11-2.11-7.22-2.81
		c-17.85-4.92-29.54-9.03-35.06-12.31c-10.34-6.1-15.5-15.18-15.5-27.26c0-12.54,4.61-22.1,13.83-28.67
		c9.22-6.56,21.05-9.85,35.5-9.85c18.32,0,34.76,4.64,49.33,13.92l-12.16,25.72c-15.39-8.81-28.66-13.21-39.82-13.21
		c-8.58,0-12.86,2.87-12.86,8.62c0,3.34,1.88,6.21,5.64,8.62c3.76,2.4,9.57,4.57,17.44,6.51c9.63,2.46,19.03,6.33,28.19,11.61
		c9.16,5.98,13.74,15.13,13.74,27.44c0,8.68-2.26,15.86-6.78,21.54c-4.88,5.92-11.11,10.23-18.72,12.93
		C1517.29,261.99,1509.23,263.33,1500.72,263.33z"/>
	<path d="M1744.72,261.22h-34.35l-8.46-21.85h-53.38l-8.63,21.85h-33.12l53.03-123.5h33.12L1744.72,261.22z M1692.39,214.71
		l-16.91-44.04l-17.27,44.04H1692.39z"/>
	<path d="M1866.46,261.22h-36.47l-17.97-34.18h-23.96v34.18h-32.24v-123.5h55.5c11.98,0,21.76,1.84,29.33,5.51
		c7.58,3.67,13.15,8.78,16.74,15.33c3.58,6.55,5.37,14.05,5.37,22.51c0,18.56-7.34,31.83-22.02,39.82L1866.46,261.22z
		 M1811.49,201.32c13.74,0,20.61-6.4,20.61-19.2c0-12.33-6.87-18.56-20.61-18.67h-23.43v37.88H1811.49z"/>
	<path d="M1940.27,263.33c-18.67,0-34.15-6.08-46.42-18.23c-12.28-12.16-18.41-27.51-18.41-46.07c0-18.2,6.28-33.33,18.85-45.37
		c12.57-12.04,28.3-18.06,47.21-18.06c10.57,0,20.08,2,28.54,5.99c8.46,3.99,15.56,9.1,21.32,15.33l-18.67,22.55
		c-9.63-11.04-19.85-16.56-30.66-16.56c-7.4,0-13.58,1.7-18.54,5.11c-4.96,3.41-8.69,7.83-11.19,13.26
		c-2.5,5.43-3.74,11.23-3.74,17.4c0,4.23,0.65,8.44,1.94,12.64c1.29,4.2,3.29,8.05,5.99,11.54c2.7,3.49,6.17,6.3,10.39,8.41
		c4.23,2.11,9.28,3.17,15.15,3.17c10.34,0,20.55-4.81,30.66-14.45l18.85,20.26C1975.57,255.64,1958.48,263.33,1940.27,263.33z"/>
	<path d="M2119.62,261.22h-32.24v-47.39h-49.86v47.39h-32.24v-123.5h32.24v50.39h49.86v-50.39h32.24V261.22z"/>
	<path d="M2175.82,261.22h-32.24v-123.5h32.24V261.22z"/>
	<path d="M2268.83,261.22h-33.47l-47.92-123.5h34.71l30.83,89.32l31.01-89.32h33.12L2268.83,261.22z"/>
	<path d="M2427.92,261.22h-99.19v-123.5h97.42v25.72h-65.18v23.08h58.84v25.55l-58.84,0.18v23.25h66.95V261.22z"/>
	<path d="M2495.39,263.33c-20.55,0-39.52-6.7-56.91-20.08l12.51-25.19c8.1,6.46,16.12,11.22,24.05,14.27
		c7.93,3.05,14.83,4.58,20.7,4.58c10.33,0,15.5-3.4,15.5-10.2c0-4.57-2.41-7.97-7.22-10.2c-2.7-1.17-5.11-2.11-7.22-2.81
		c-17.85-4.92-29.54-9.03-35.06-12.31c-10.34-6.1-15.5-15.18-15.5-27.26c0-12.54,4.61-22.1,13.83-28.67
		c9.22-6.56,21.05-9.85,35.5-9.85c18.32,0,34.76,4.64,49.33,13.92l-12.16,25.72c-15.39-8.81-28.66-13.21-39.82-13.21
		c-8.58,0-12.86,2.87-12.86,8.62c0,3.34,1.88,6.21,5.64,8.62c3.76,2.4,9.57,4.57,17.44,6.51c9.63,2.46,19.03,6.33,28.19,11.61
		c9.16,5.98,13.74,15.13,13.74,27.44c0,8.68-2.26,15.86-6.78,21.54c-4.88,5.92-11.11,10.23-18.72,12.93
		C2511.97,261.99,2503.91,263.33,2495.39,263.33z"/>
</g>
<g>
	<path class="st0" d="M321.57,383.47h-208c-22.09,0-36.84-17.91-32.95-40l36.68-208c3.9-22.09,24.96-40,47.05-40h208
		c22.09,0,36.84,17.91,32.95,40l-36.68,208C364.73,365.56,343.66,383.47,321.57,383.47z"/>
	<path class="st0" d="M281.57,343.47h-208c-22.09,0-36.84-17.91-32.95-40l36.68-208c3.9-22.09,24.96-40,47.05-40h208
		c22.09,0,36.84,17.91,32.95,40l-36.68,208C324.73,325.56,303.66,343.47,281.57,343.47z"/>
	<path class="st0" d="M241.57,303.47h-208c-22.09,0-36.84-17.91-32.95-40l36.68-208c3.9-22.09,24.96-40,47.05-40h208
		c22.09,0,36.84,17.91,32.95,40l-36.68,208C284.73,285.56,263.66,303.47,241.57,303.47z"/>
</g>
<g>
</g>
<g>
</g>
<g>
</g>
<g>
</g>
<g>
</g>
<g>
</g>
</svg>
